# xmcd CD database file
#
# Track frame offsets:
#	150
#	13501
#	26275
#	39670
#	53009
#	67760
#	81130
#	94283
#	107075
#	122034
#	136900
#	150983
#	164417
#	177676
#	191471
#	203885
#	218403
#	232420
#	245458
#	258691
#	272390
#	285612
#	300414
#	313844
#
# Disc length: 4369 seconds
#
# Revision: 1
# Processed by: cddbd v1.5.2PL0 Copyright (c) Steve Scherf et al.
# Submitted via: CDex 1.83
#
DISCID=49110f18
DTITLE=Bessie Smith - The Anthology CD02
DYEAR=2010
DGENRE=Blues
TTITLE0=Hard Driving Papa
TTITLE1=Me And My Gin
TTITLE2=Dyin' By The Hour
TTITLE3=I'd Rather Be Dead And Buried In My Grave
TTITLE4=Aggravatin' Papa (Don't You Two-Time Me)
TTITLE5=Lock And Key
TTITLE6=On Revival Day
TTITLE7=Looking For My Man Blues
TTITLE8=There'll Be A Hot Time In The Old Town Tonight
TTITLE9=Back Water Blues
TTITLE10=Young Woman's Blues
TTITLE11=A Good Man Is Hard To Find
TTITLE12=Baby, Won't You Please Come Home
TTITLE13=Golden Rule Blues
TTITLE14=What's The Matter Now
TTITLE15=Honeyman Blues
TTITLE16=Muddy Water (A Mississippi Moan)
TTITLE17=Foolish Man Blues
TTITLE18=Kitchen Man
TTITLE19=Gulf Coast Blues
TTITLE20=Foolish Man Blues
TTITLE21=Chicago Bound Blues
TTITLE22=Alexander's Ragtime Band
TTITLE23=Sing Sing Prison Blues
EXTD=YEAR: 2010
EXTT0=
EXTT1=
EXTT2=
EXTT3=
EXTT4=
EXTT5=
EXTT6=
EXTT7=
EXTT8=
EXTT9=
EXTT10=
EXTT11=
EXTT12=
EXTT13=
EXTT14=
EXTT15=
EXTT16=
EXTT17=
EXTT18=
EXTT19=
EXTT20=
EXTT21=
EXTT22=
EXTT23=
PLAYORDER=
